REM MD5 81080327f404def1b3dd2f7bb9bb763f
FILE "Official U.S. PlayStation Magazine Demo Disc 52 (USA).bin" BINARY
  TRACK 01 MODE2/2352
    INDEX 01 00:00:00
  TRACK 02 AUDIO
    INDEX 00 47:43:27
    INDEX 01 47:45:27
  TRACK 03 AUDIO
    INDEX 00 48:31:06
    INDEX 01 48:33:06
  TRACK 04 AUDIO
    INDEX 00 49:25:11
    INDEX 01 49:27:11
  TRACK 05 AUDIO
    INDEX 00 51:14:43
    INDEX 01 51:16:43
  TRACK 06 AUDIO
    INDEX 00 52:07:51
    INDEX 01 52:09:51
REM LEADOUT 52:15:47
